<svg xmlns="http://www.w3.org/2000/svg" viewBox="0 0 502.29 502.29"><defs><style>.cls-1{fill:#fff;}.cls-2{fill:#b9509e;}</style></defs><g id="Layer_2" data-name="Layer 2"><g id="Layer_1-2" data-name="Layer 1"><circle class="cls-1" cx="251.14" cy="251.14" r="251.14"/><path class="cls-2" d="M314.62,81.86h-127a105.82,105.82,0,0,0-105.8,105.8v127a105.81,105.81,0,0,0,105.8,105.8h127a105.8,105.8,0,0,0,105.8-105.8v-127A105.81,105.81,0,0,0,314.62,81.86Zm74.06,232.76a74.14,74.14,0,0,1-74.06,74.06h-127a74.15,74.15,0,0,1-74.06-74.06v-127a74.15,74.15,0,0,1,74.06-74.06h127a74.15,74.15,0,0,1,74.06,74.06Z"/><path class="cls-2" d="M251.14,166.5a84.64,84.64,0,1,0,84.64,84.64A84.65,84.65,0,0,0,251.14,166.5Zm0,137.54a52.9,52.9,0,1,1,52.9-52.9A53,53,0,0,1,251.14,304Z"/><circle class="cls-2" cx="335.78" cy="160.69" r="11.28"/></g></g></svg>