<svg xmlns="http://www.w3.org/2000/svg" viewBox="0 0 502.29 502.29"><defs><style>.cls-1{fill:#fff;}.cls-2{fill:#060505;}</style></defs><g id="Layer_2" data-name="Layer 2"><g id="Layer_1-2" data-name="Layer 1"><circle class="cls-1" cx="251.14" cy="251.14" r="251.14"/><path class="cls-2" d="M372,301.13a166.87,166.87,0,0,1-73.89-16.89,15.12,15.12,0,0,0-20.25,7L267,313.76a212.74,212.74,0,0,1-78.49-78.48l22.55-10.88a15.13,15.13,0,0,0,7-20.25,166.31,166.31,0,0,1-16.92-73.9A15.12,15.12,0,0,0,186,115.14H130.25a15.12,15.12,0,0,0-15.11,15.11c0,141.66,115.24,256.89,256.89,256.89A15.12,15.12,0,0,0,387.14,372V316.24A15.12,15.12,0,0,0,372,301.13Z"/></g></g></svg>