<svg xmlns="http://www.w3.org/2000/svg" viewBox="0 0 503.29 503.29"><defs><style>.cls-1{fill:#fff;}.cls-1,.cls-2{stroke:#fff;stroke-miterlimit:10;}.cls-2{fill:#060505;}</style></defs><g id="Layer_2" data-name="Layer 2"><g id="Layer_1-2" data-name="Layer 1"><circle class="cls-1" cx="251.64" cy="251.64" r="251.14"/><path class="cls-2" d="M251.64,77h0A126.09,126.09,0,0,0,125.4,203.23c0,24.36,7.78,47.61,18.6,66.72l82.28,142.4c5.15,9.3,15.55,13.95,25.36,13.95A29.42,29.42,0,0,0,277,412.35L359.29,270c10.91-19.12,18.6-42,18.6-66.72A126.16,126.16,0,0,0,251.64,77Zm0,163.53a46.08,46.08,0,1,1,46.09-46.08A46.19,46.19,0,0,1,251.64,240.52Z"/></g></g></svg>