<svg height="512" viewBox="0 0 60 60" width="512" xmlns="http://www.w3.org/2000/svg"><g id="Page-1" fill="none" fill-rule="evenodd"><g id="025---Artboard-Edit" fill="rgb(0,0,0)" fill-rule="nonzero"><path id="Shape" d="m56 7h-15c0-1.65685425-1.3431458-3-3-3h-3v-1c0-1.65685425-1.3431458-3-3-3h-4c-1.6568542 0-3 1.34314575-3 3v1h-3c-1.6568542 0-3 1.34314575-3 3h-15c-2.209139 0-4 1.790861-4 4v31c0 2.209139 1.790861 4 4 4h3v3c0 1.6568542 1.34314575 3 3 3h8.557l-1.48 3.947c-.34533.9212493-.2170037 1.953272.3434262 2.7618951s1.4817278 1.2910635 2.4655738 1.2911049h2.728c1.2493723-.0040703 2.3667083-.7785285 2.809-1.947l2.27-6.053h4.614l2.27 6.053c.4422917 1.1684715 1.5596277 1.9429297 2.809 1.947h2.728c.983846-.0000414 1.9051439-.4824818 2.4655738-1.2911049s.6887562-1.8406458.3434262-2.7618951l-1.48-3.947h3.016l.391 5.083c.1246302 1.6475264 1.4977663 2.9207124 3.15 2.9207124s3.0253698-1.273186 3.15-2.9207124l.85-11.083h4c2.209139 0 4-1.790861 4-4v-31c0-2.209139-1.790861-4-4-4zm-29-4c0-.55228475.4477153-1 1-1h4c.5522847 0 1 .44771525 1 1v1h-6zm-6 4c0-.55228475.4477153-1 1-1h16c.5522847 0 1 .44771525 1 1v5c0 .5522847-.4477153 1-1 1h-16c-.5522847 0-1-.4477153-1-1zm2.551 50.351c-.1480656.3892889-.5205072.6472554-.937.649h-2.728c-.3278898-.0001231-.6348881-.1609815-.8216196-.4305052-.1867315-.2695238-.2294697-.6134669-.1143804-.9204948l1.743-4.649h4.864zm17.5-.7c.1143174.3069612.0710551.6504483-.1158082.9194757-.1868634.2690274-.4936347.4294841-.8211918.4295243h-2.728c-.4167554-.0001565-.7897189-.2587604-.936-.649l-2.007-5.351h4.864zm-1.051-6.651h-30c-.55228475 0-1-.4477153-1-1v-3h35l.308 4zm8-22c-2.1742345.0306255-3.9632859-1.7038598-4-3.878 0-1.047 1.176-3.538 3.147-6.664.1896959-.2861603.5101747-.458214.8535-.458214s.6638041.1720537.8535.458214c2.839 4.507 3.146 6.161 3.146 6.664-.0367141 2.1741402-1.8257655 3.9086255-4 3.878zm.657 2c.9184769-.0013533 1.7198109.6230521 1.943 1.514l.078.312c.014.057.016.117.029.174h-5.407c.013-.057.015-.116.029-.173l.078-.312c.2221667-.8888146 1.019842-1.5130284 1.936-1.515zm-.657 28c-.6051508-.0022249-1.1076541-.4677794-1.156-1.071l-.456-5.92v-.009c0-.007 0-.013 0-.02l-1.277-16.6c-.01-.126 0-.252 0-.379h5.779c0 .127.011.253 0 .379l-1.735 22.55c-.0492639.6022211-.5507756 1.0668251-1.155 1.07zm10-16c0 1.1045695-.8954305 2-2 2h-3.843l.728-9.467c.0832099-1.0712139-.007633-2.1488338-.269-3.191l-.078-.312c-.1975482-.7786271-.6259706-1.4793015-1.229-2.01 1.6698318-1.0704358 2.6829982-2.9145417 2.691-4.898 0-.557 0-2.248-3.455-7.73-.5556171-.867162-1.5146066-1.3916615-2.5445-1.3916615s-1.9888829.5244995-2.5445 1.3916615c-2.293 3.636-3.456 6.237-3.456 7.73.0072899 1.9839279 1.0200947 3.828814 2.69 4.9-.6025133.5301384-1.0305894 1.2301195-1.228 2.008l-.078.313c-.2610402 1.0425606-.3518779 2.1204563-.269 3.192l.728 9.465h-39.843c-1.1045695 0-2-.8954305-2-2v-31c0-1.1045695.8954305-2 2-2h15v3c0 1.6568542 1.3431458 3 3 3h16c1.6568542 0 3-1.3431458 3-3v-3h15c1.1045695 0 2 .8954305 2 2z"/><path id="Shape" d="m54 11h-10c-.5522847 0-1 .4477153-1 1s.4477153 1 1 1h10v5c0 .5522847.4477153 1 1 1s1-.4477153 1-1v-5c0-1.1045695-.8954305-2-2-2z"/><path id="Shape" d="m37 40h-31v-27h10c.5522847 0 1-.4477153 1-1s-.4477153-1-1-1h-10c-1.1045695 0-2 .8954305-2 2v27c0 1.1045695.8954305 2 2 2h31c.5522847 0 1-.4477153 1-1s-.4477153-1-1-1z"/><path id="Shape" d="m13 19.69v9.62c.0015556.9181384.47232 1.7717761 1.248 2.263l-2.128 3.953c-.1667814.3098208-.1584634.6844961.0219032.9866101.1803665.302114.5062375.4872053.8580968.4873899h12.052c2.2857932 1.4350907 5.2209489 1.3067752 7.372786-.3223144s3.0717392-4.4193197 2.3106923-7.0087489c-.7610469-2.5894291-3.0443794-4.4382116-5.7354783-4.6439367v-5.335c-.0016533-1.4849606-1.2050394-2.6883467-2.69-2.69h-10.62c-1.4849606.0016533-2.6883467 1.2050394-2.69 2.69zm7 5.418 2.339 4.335c-.6292097 1.8610208-.3739971 3.9075091.693 5.557h-8.358zm13 6.392c0 2.4852814-2.0147186 4.5-4.5 4.5s-4.5-2.0147186-4.5-4.5 2.0147186-4.5 4.5-4.5c2.4841391.0027556 4.4972444 2.0158609 4.5 4.5zm-6-11.81v5.492c-1.3762318.326092-2.6085504 1.0921659-3.51 2.182l-2.61-4.839c-.1745723-.323413-.5124793-.5250052-.88-.525-.3677348.000193-.7056937.2022003-.88.526l-3.92 7.274c-.1291825-.1298249-.2011794-.3058573-.2-.489v-9.621c.0005508-.3808481.3091519-.6894492.69-.69h10.62c.3808481.0005508.6894492.3091519.69.69z"/></g></g></svg>