<svg xmlns="http://www.w3.org/2000/svg" viewBox="0 0 177 198.47"><defs><style>.cls-1{fill:#fff;}</style></defs><title>1Asset 5</title><g id="Layer_2" data-name="Layer 2"><g id="Layer_4" data-name="Layer 4"><polygon class="cls-1" points="176.72 75.02 150.55 89.32 149.92 80.86 114.24 100.43 114.59 123.47 162.94 97.9 176.91 106.5 176.72 75.02"/><polygon class="cls-1" points="22.86 168.97 23.25 100.33 72.73 190.62 22.86 168.97"/><polygon class="cls-1" points="169.49 156.21 177 140.75 177 151.5 169.49 156.21"/><polygon class="cls-1" points="90 198.47 90.21 183.1 103.18 190.3 90 198.47"/><polygon class="cls-1" points="90.16 172.79 116.56 158.65 117.14 167.1 151.54 148.49 150.57 123.9 104.14 149.99 89.87 141.35 90.16 172.79"/><path class="cls-1" d="M0,49.36,88.66,0l88.28,49V62.6l-11.27-7.16L101,91.76l-12,19.6-.84-13.62L68.75,87.09,69,145.84,21.38,61.1,4.22,51.68l.66,111.79-4.5-2.15ZM88,16.08c-3.87,0-7,1.75-7,3.9s3.13,3.91,7,3.91,7-1.75,7-3.91S91.87,16.08,88,16.08Zm0,21.61c-4.69,0-8.5,2.12-8.5,4.74s3.81,4.74,8.5,4.74,8.5-2.12,8.5-4.74S92.69,37.69,88,37.69Zm-.17,26.25c-5.52,0-10,2.49-10,5.57s4.48,5.58,10,5.58,10-2.5,10-5.58S93.35,63.94,87.83,63.94Z"/></g></g></svg>