<svg xmlns="http://www.w3.org/2000/svg" viewBox="0 0 40 48.47"><defs><style>.cls-1{fill:#fff;}</style></defs><title>Asset 7</title><g id="Layer_2" data-name="Layer 2"><g id="Layer_4" data-name="Layer 4"><polygon class="cls-1" points="39.94 19.44 34.28 22.65 34.14 20.74 26.44 25.14 26.53 30.34 36.97 24.6 40 26.55 39.94 19.44"/><polygon class="cls-1" points="5.18 41.37 5.18 25.76 15.54 46.23 5.18 41.37"/><polyline class="cls-1" points="15.54 21.07 15.54 35.3 4.84 14.83"/><polygon class="cls-1" points="38.23 37.79 39.93 34.29 39.93 36.72 38.23 37.79"/><polygon class="cls-1" points="20.29 48.47 20.34 44.99 23.27 46.62 20.29 48.47"/><polygon class="cls-1" points="20.38 41.76 26.04 38.58 26.18 40.49 33.56 36.31 33.34 30.76 23.37 36.62 20.29 34.66 20.38 41.76"/><path class="cls-1" d="M0,12,20,0,40,11.88v3.3l-2.55-1.74L22.82,22.25,20.11,27l-.19-3.3-4.38-2.59.05,14.25L4.83,14.81,1,12.53l.15,27.1-1-.52ZM19.89,3.72c-.88,0-1.58.41-1.58.91s.7.9,1.58.9,1.58-.4,1.58-.9S20.76,3.72,19.89,3.72Zm0,5c-1.06,0-1.92.49-1.92,1.09s.86,1.1,1.92,1.1,1.92-.49,1.92-1.1S21,8.73,19.89,8.73Zm0,6.07c-1.25,0-2.26.58-2.26,1.29s1,1.3,2.26,1.3,2.26-.58,2.26-1.3S21.1,14.8,19.85,14.8Z"/></g></g></svg>