<svg xmlns="http://www.w3.org/2000/svg" viewBox="0 0 125 151.46"><defs><style>.cls-1{fill:#4b5358;}</style></defs><title>Asset 5</title><g id="Layer_2" data-name="Layer 2"><g id="Layer_4" data-name="Layer 4"><polygon class="cls-1" points="124.8 60.75 107.14 70.79 106.7 64.82 82.61 78.55 82.9 94.82 115.54 76.87 125 82.98 124.8 60.75"/><polygon class="cls-1" points="16.18 129.28 16.18 80.5 48.55 144.46 16.18 129.28"/><polyline class="cls-1" points="48.55 65.86 48.55 110.31 15.12 46.34"/><polygon class="cls-1" points="119.48 118.09 124.78 107.17 124.78 114.76 119.48 118.09"/><polygon class="cls-1" points="63.41 151.46 63.55 140.61 72.71 145.69 63.41 151.46"/><polygon class="cls-1" points="63.67 130.5 81.39 120.57 81.8 126.55 104.88 113.48 104.17 96.12 73.02 114.43 63.41 108.3 63.67 130.5"/><path class="cls-1" d="M0,37.4,62.61,0,125,37.13v10.3L117,42,71.3,69.53,62.85,84.37l-.59-10.32L48.55,66l.18,44.52L15.1,46.29,3,39.15l.47,84.71L.27,122.23ZM62.15,11.63c-2.73,0-4.95,1.27-4.95,2.83s2.22,2.82,4.95,2.82,4.94-1.26,4.94-2.82S64.88,11.63,62.15,11.63Zm0,15.64c-3.32,0-6,1.54-6,3.43s2.69,3.43,6,3.43,6-1.54,6-3.43S65.46,27.27,62.15,27.27Zm-.12,19c-3.9,0-7.07,1.8-7.07,4s3.17,4,7.07,4,7.06-1.81,7.06-4S65.93,46.26,62,46.26Z"/></g></g></svg>