<svg height="512pt" viewBox="0 -39 512 512" width="512pt" xmlns="http://www.w3.org/2000/svg"><path d="m489.953125 360.144531h-8.269531v-246.371093c0-28.199219-22.960938-51.136719-51.183594-51.136719h-71.042969c-2.609375-7.296875-9.574219-12.539063-17.761719-12.539063h-.847656v-31.234375c0-10.398437-8.46875-18.863281-18.875-18.863281h-75.46875c-4.144531 0-7.5 3.355469-7.5 7.5s3.355469 7.5 7.5 7.5h75.46875c2.136719 0 3.875 1.734375 3.875 3.863281v31.234375h-57.191406l-6.085938-7.453125c-5.769531-7.066406-14.3125-11.117187-23.4375-11.117187h-52.980468v-12.664063c0-2.128906 1.738281-3.863281 3.875-3.863281h21.472656c4.144531 0 7.5-3.355469 7.5-7.5s-3.355469-7.5-7.5-7.5h-21.472656c-10.410156 0-18.875 8.464844-18.875 18.863281v12.664063h-.847656c-10.410157 0-18.875 8.464844-18.875 18.867187v12.242188h-69.929688c-28.222656 0-51.183594 22.9375-51.183594 51.136719v246.371093h-8.269531c-12.15625 0-22.046875 9.890625-22.046875 22.046875 0 28.195313 22.9375 51.136719 51.136719 51.136719h297.082031c4.144531 0 7.5-3.355469 7.5-7.5s-3.355469-7.5-7.5-7.5h-297.082031c-19.925781 0-36.136719-16.210937-36.136719-36.136719 0-3.886718 3.160156-7.046875 7.046875-7.046875h467.90625c3.886719 0 7.046875 3.164063 7.046875 7.046875 0 19.925782-16.210938 36.136719-36.136719 36.136719h-77.644531c-4.144531 0-7.5 3.355469-7.5 7.5s3.355469 7.5 7.5 7.5h77.644531c28.195313 0 51.136719-22.9375 51.136719-51.136719 0-12.15625-9.890625-22.046875-22.046875-22.046875zm-319.648437-164.628906h35.105468l33.324219 57.652344c3.601563 6.238281 10.058594 9.960937 17.265625 9.960937s13.660156-3.722656 17.265625-9.960937l33.324219-57.652344h35.105468c10.40625 0 18.875-8.460937 18.875-18.863281v-66.882813h69.234376c3.894531 0 7.0625 3.160157 7.0625 7.042969v208.636719c0 3.886719-3.167969 7.046875-7.0625 7.046875h-347.613282c-3.890625 0-7.058594-3.160156-7.058594-7.046875v-208.636719c0-3.886719 3.167969-7.046875 7.058594-7.046875h69.238282v66.886719c0 10.402344 8.464843 18.863281 18.875 18.863281zm63.855468-19.660156c4.140625 0 7.5-3.355469 7.5-7.5v-51.019531c0-7.898438 6.433594-14.320313 14.339844-14.320313s14.339844 6.421875 14.339844 14.320313v51.019531c0 4.144531 3.359375 7.5 7.5 7.5h14.234375c2.578125 0 3.855469 1.730469 4.28125 2.472656.425781.738281 1.28125 2.699219 0 4.917969l-36.074219 62.417968c-1.289062 2.226563-3.421875 2.464844-4.28125 2.464844s-2.992188-.238281-4.28125-2.464844l-36.074219-62.417968c-1.28125-2.21875-.425781-4.179688 0-4.917969.425781-.742187 1.703125-2.472656 4.28125-2.472656zm-67.730468-125.460938c0-2.132812 1.738281-3.867187 3.875-3.867187h68.828124c4.605469 0 8.910157 2.042968 11.820313 5.605468l8.335937 10.207032c1.425782 1.746094 3.558594 2.757812 5.8125 2.757812h76.59375c2.136719 0 3.875 1.730469 3.875 3.863282v107.691406c0 2.128906-1.738281 3.863281-3.875 3.863281h-29.65625c-.046874-3.328125-.9375-6.652344-2.6875-9.6875-3.605468-6.242187-10.0625-9.972656-17.273437-9.972656h-6.734375v-43.519531c0-16.167969-13.164062-29.320313-29.339844-29.320313-16.179687 0-29.34375 13.152344-29.34375 29.320313v43.519531h-6.734375c-7.210937 0-13.667969 3.730469-17.273437 9.972656-1.75 3.035156-2.640625 6.359375-2.6875 9.6875h-29.65625c-2.136719 0-3.875-1.734375-3.875-3.863281v-126.257813zm-121.113282 63.378907c0-19.925782 16.230469-36.136719 36.183594-36.136719h69.929688v17.128906h-69.238282c-12.164062 0-22.058594 9.890625-22.058594 22.046875v208.636719c0 12.15625 9.894532 22.042969 22.058594 22.042969h347.613282c12.164062 0 22.0625-9.886719 22.0625-22.042969v-208.636719c0-12.15625-9.894532-22.046875-22.0625-22.046875h-69.234376v-17.128906h69.929688c19.949219 0 36.183594 16.210937 36.183594 36.136719v246.371093h-421.367188zm0 0"/><path d="m163.78125 389.238281c-4.140625 0-7.5 3.355469-7.5 7.5 0 4.140625 3.359375 7.5 7.5 7.5h184.4375c4.140625 0 7.5-3.359375 7.5-7.5 0-4.144531-3.359375-7.5-7.5-7.5zm0 0"/></svg>