<svg xmlns="http://www.w3.org/2000/svg" viewBox="0 0 690.25 277.35"><defs><style>.cls-1{fill:#104547;}.cls-2{fill:#fff;}</style></defs><title>Logo for personal portfolio</title><g id="Layer_3" data-name="Layer 3"><polygon points="0 48.5 117.5 0 235.5 48 235.5 67 220.5 57 129.5 103 117.5 98 5.61 51.73 6.5 208 0.5 205 0 48.5"/><polygon points="235.5 90 202.5 109 201.5 98 156.5 124 157.5 154 218.5 120 236.5 131 235.5 90"/><path class="cls-1" d="M1138,476" transform="translate(-842.5 -423)"/><polygon points="30.5 218 30.5 128 91.5 246 30.5 218"/><polyline points="91.5 87 91.5 183 28.5 61"/><path class="cls-2" d="M971.64,467.16c.15,3.84-4.13,9-9.66,9.25s-10.23-4.59-10.39-8.42,4.23-6.5,9.77-6.73S971.48,463.33,971.64,467.16Z" transform="translate(-842.5 -423)"/><polygon points="129.5 103 117.5 128 117.5 98 129.5 103"/><polygon points="226.5 192.14 236.5 172 236.5 186 226.5 192.14"/><polygon points="119.5 256.32 119.77 236.29 137.04 245.68 119.5 256.32"/><path class="cls-1" d="M1063.26,480.28" transform="translate(-842.5 -423)"/><polygon points="119.99 218.95 153.38 200.64 154.15 211.66 197.66 187.55 196.32 155.52 137.61 189.31 119.5 178 119.99 218.95"/><path class="cls-2" d="M1030.49,467.47c.16,3.84-4.12,9-9.66,9.25s-10.23-4.59-10.38-8.42,4.22-6.5,9.76-6.73S1030.33,463.64,1030.49,467.47Z" transform="translate(-842.5 -423)"/><path class="cls-2" d="M911.49,467.47c.16,3.84-4.12,9-9.66,9.25s-10.23-4.59-10.38-8.42,4.22-6.5,9.76-6.73S911.33,463.64,911.49,467.47Z" transform="translate(-842.5 -423)"/></g><g id="Layer_4" data-name="Layer 4"><polygon points="453.75 69.53 571.75 0.53 689.25 69.03 689.25 88.03 674.25 78.03 571.75 137.53 459.36 72.76 460.25 229.03 454.25 226.03 453.75 69.53"/><polygon points="689.25 112.03 656.25 131.03 655.25 120.03 610.25 146.03 611.25 176.03 672.25 142.03 690.25 153.03 689.25 112.03"/><path class="cls-1" d="M1591.75,497" transform="translate(-842.5 -423)"/><polygon points="484.25 239.03 484.25 149.03 545.25 267.03 484.25 239.03"/><polyline points="545.25 122.03 545.25 204.03 482.25 86.03"/><path class="cls-2" d="M1367.31,487.35c.19,4.63-4.91,10.9-11.52,11.17s-12.2-5.56-12.39-10.19,5-7.85,11.64-8.12S1367.12,482.71,1367.31,487.35Z" transform="translate(-842.5 -423)"/><polygon points="587.25 128.03 571.25 155.03 571.08 136.41 587.25 128.03"/><polygon points="680.25 213.17 690.25 193.03 690.25 207.03 680.25 213.17"/><polygon points="573.25 277.35 573.52 257.32 590.79 266.7 573.25 277.35"/><path class="cls-1" d="M1517,501.31" transform="translate(-842.5 -423)"/><polygon points="573.74 239.98 607.13 221.66 607.9 232.68 651.41 208.58 650.08 176.54 591.36 210.34 573.25 199.03 573.74 239.98"/><path class="cls-2" d="M1485.88,487.67c.19,4.63-4.92,10.9-11.52,11.17s-12.21-5.55-12.4-10.19,5-7.85,11.65-8.12S1485.69,483,1485.88,487.67Z" transform="translate(-842.5 -423)"/><path class="cls-2" d="M1427.88,487.67c.19,4.63-4.92,10.9-11.52,11.17s-12.21-5.55-12.4-10.19,5-7.85,11.65-8.12S1427.69,483,1427.88,487.67Z" transform="translate(-842.5 -423)"/></g></svg>