<svg xmlns="http://www.w3.org/2000/svg" viewBox="0 0 177 214.47"><defs><style>.cls-1{fill:#4b5358;}</style></defs><title>Asset 4</title><g id="Layer_2" data-name="Layer 2"><g id="Layer_4" data-name="Layer 4"><polygon class="cls-1" points="176.72 86.02 151.71 100.23 151.08 91.78 116.98 111.23 117.39 134.27 163.6 108.85 177 117.5 176.72 86.02"/><polygon class="cls-1" points="22.92 183.06 22.92 113.98 68.75 204.55 22.92 183.06"/><polyline class="cls-1" points="68.75 93.26 68.75 156.19 21.41 65.63"/><polygon class="cls-1" points="169.18 167.21 176.69 151.75 176.69 162.5 169.18 167.21"/><polygon class="cls-1" points="89.79 214.47 89.99 199.1 102.96 206.3 89.79 214.47"/><polygon class="cls-1" points="90.16 184.79 115.24 170.73 115.82 179.19 148.51 160.69 147.51 136.1 103.39 162.04 89.79 153.36 90.16 184.79"/><path class="cls-1" d="M0,53,88.66,0l88.28,52.58V67.16l-11.27-7.68L101,98.45l-12,21-.84-14.61L68.75,93.43l.25,63L21.38,65.55,4.22,55.44l.66,119.94-4.5-2.3ZM88,16.47c-3.87,0-7,1.79-7,4s3.13,4,7,4,7-1.79,7-4S91.87,16.47,88,16.47Zm0,22.14c-4.69,0-8.5,2.18-8.5,4.86s3.81,4.86,8.5,4.86,8.5-2.18,8.5-4.86S92.69,38.61,88,38.61ZM87.83,65.5c-5.52,0-10,2.56-10,5.72s4.48,5.71,10,5.71,10-2.56,10-5.71S93.35,65.5,87.83,65.5Z"/></g></g></svg>