<?xml version="1.0" encoding="iso-8859-1"?>
<!-- Generator: Adobe Illustrator 19.0.0, SVG Export Plug-In . SVG Version: 6.00 Build 0)  -->
<svg version="1.1" id="Capa_1" xmlns="http://www.w3.org/2000/svg" xmlns:xlink="http://www.w3.org/1999/xlink" x="0px" y="0px"
	 viewBox="0 0 512 512" style="enable-background:new 0 0 512 512;" xml:space="preserve">
<g>
	<g>
		<g>
			<path d="M41.503,405.725h73.81v-73.81h-73.81V405.725z M56.503,346.915h43.81v43.81h-43.81V346.915z"/>
			<path d="M41.503,180.085h73.81v-73.81h-73.81V180.085z M56.503,121.275h43.81v43.81h-43.81V121.275z"/>
			<path d="M41.503,292.905h73.81v-73.811h-73.81V292.905z M56.503,234.095h43.81v43.811h-43.81V234.095z"/>
			<path d="M395.18,405.725h73.81v-73.81h-73.81V405.725z M410.18,346.915h43.81v43.81h-43.81V346.915z"/>
			<path d="M453.989,0v52.266h-43.81V0H100.313v52.266h-43.81V0H0v512h56.503v-52.266h43.81V512H410.18v-52.266h43.81V512H512V0
				H453.989z M497,497h-28.011v-52.266h-73.81V497H115.313v-52.266h-73.81V497H15V15h26.503v52.266h73.81V15H395.18v52.266h73.81V15
				H497V497z"/>
			<path d="M395.18,292.905h73.81v-73.811h-73.81V292.905z M410.18,234.095h43.81v43.811h-43.81V234.095z"/>
			<path d="M395.18,180.085h73.81v-73.81h-73.81V180.085z M410.18,121.275h43.81v43.81h-43.81V121.275z"/>
			<path d="M173.661,120.39v275.914l184.454-137.957L173.661,120.39z M188.661,150.34L333.07,258.347L188.661,366.353V150.34z"/>
			
				<rect x="230.778" y="201.639" transform="matrix(-0.8008 -0.5989 0.5989 -0.8008 303.4345 519.1917)" width="14.55" height="14.999"/>
			<polygon points="264.082,219.235 255.098,231.247 291.33,258.347 282.735,264.775 291.72,276.787 316.375,258.347 			"/>
			<rect x="198.66" y="281.64" width="15" height="49.771"/>
			<rect x="198.66" y="252.29" width="15" height="12.293"/>
			<polygon points="140.312,42.347 200.309,42.347 200.309,27.347 125.312,27.347 125.312,66.489 140.312,66.489 			"/>
			<rect x="219.24" y="27.347" width="16.905" height="15"/>
			<polygon points="346.375,42.347 370.18,42.347 370.18,53.368 385.18,53.368 385.18,27.347 346.375,27.347 			"/>
			<polygon points="370.18,474.347 285.167,474.347 285.167,489.347 385.18,489.347 385.18,447.963 370.18,447.963 			"/>
			<rect x="229.23" y="474.35" width="19.257" height="15"/>
			<polygon points="140.312,459.887 125.312,459.887 125.312,489.347 167.787,489.347 167.787,474.347 140.312,474.347 			"/>
		</g>
	</g>
</g>
<g>
</g>
<g>
</g>
<g>
</g>
<g>
</g>
<g>
</g>
<g>
</g>
<g>
</g>
<g>
</g>
<g>
</g>
<g>
</g>
<g>
</g>
<g>
</g>
<g>
</g>
<g>
</g>
<g>
</g>
</svg>
