<svg xmlns="http://www.w3.org/2000/svg" viewBox="0 0 512 512"><defs><style>.cls-1{fill:#283a97;}.cls-14,.cls-2{fill:#0083ca;}.cls-2{stroke:#231f20;stroke-miterlimit:10;}.cls-3{fill:#3d7db7;}.cls-4{fill:#0070af;}.cls-5{fill:#005dac;}.cls-6{fill:#2d6cb5;}.cls-7{fill:#2e3192;}.cls-8{fill:#a7a9ac;opacity:0.2;}.cls-9{fill:#808285;opacity:0.27;}.cls-10,.cls-11{fill:#d1d3d4;}.cls-10{opacity:0.15;}.cls-11{opacity:0.08;}.cls-12{fill:#009174;}.cls-13{fill:#15682e;}.cls-15,.cls-19,.cls-21{fill:#231f20;}.cls-15{opacity:0.48;}.cls-16{fill:#48a061;}.cls-17{fill:#00964f;}.cls-17,.cls-21{opacity:0.5;}.cls-18{fill:#005b23;}.cls-20{fill:#fff;opacity:0.87;}.cls-22{fill:#ed1c24;}.cls-23{fill:#e6e7e8;}.cls-24{fill:#006838;}</style></defs><title>1Artboard 5</title><g id="Water"><path class="cls-1" d="M2.93,451.26s50.31-20.53,69.18,10.27,74.12,8.21,74.12,8.21-53.91,46.2-75.47,14.89S2.93,451.26,2.93,451.26Z"/><path class="cls-2" d="M107.74,300.85s50.32-20.53,69.18,10.27S251,319.33,251,319.33s-53.9,46.2-75.46,14.89S107.74,300.85,107.74,300.85Z"/><path class="cls-3" d="M234.58,460s-18.3-29.17-36.39-3.81S160,449.48,160,449.48s12.54,54.07,32.08,28.75S234.58,460,234.58,460Z"/><path class="cls-4" d="M231.13,485.38s35.22-8.7,48.43,4.35,51.89,3.48,51.89,3.48-37.74,19.58-52.83,6.31S231.13,485.38,231.13,485.38Z"/><path class="cls-5" d="M236.07,461.15s47.67-27.57,69.76.28S380.27,459,380.27,459,331.86,512.52,307,484.54,236.07,461.15,236.07,461.15Z"/><path class="cls-5" d="M14.31,340.38s50.31-20.53,69.18,10.27,74.12,8.21,74.12,8.21-53.91,46.2-75.47,14.89S14.31,340.38,14.31,340.38Z"/><path class="cls-6" d="M430.37,415s27.41-13.27,37.69,6.63,40.39,5.3,40.39,5.3-29.38,29.85-41.12,9.62S430.37,415,430.37,415Z"/><path class="cls-4" d="M9,254.87s29.1-7.05,40,3.52,42.87,2.82,42.87,2.82-31.18,15.85-43.65,5.11S9,254.87,9,254.87Z"/><path class="cls-4" d="M383.64,211.79s36.19-9.53,49.77,4.76,53.32,3.81,53.32,3.81S448,241.8,432.44,227.27,383.64,211.79,383.64,211.79Z"/><path class="cls-7" d="M503.18,467.34s-29.53-23.85-46.5-5.12-49.39-7.49-49.39-7.49,27.93,43,46.73,24.34S503.18,467.34,503.18,467.34Z"/><path class="cls-4" d="M42.91,191.16s33.08-6,45.48,3,48.74,2.4,48.74,2.4-35.44,13.5-49.62,4.35S42.91,191.16,42.91,191.16Z"/><path class="cls-4" d="M62.67,99s23.15-4.35,31.83,2.17,34.1,1.74,34.1,1.74-24.8,9.78-34.72,3.15S62.67,99,62.67,99Z"/><path class="cls-8" d="M331.43,61.59s-26.61-3.17-36.59,1.59-39.21,1.27-39.21,1.27,28.51,7.14,39.92,2.3S331.43,61.59,331.43,61.59Z"/><path class="cls-9" d="M114.78,53.33s23-2.08,31.61,1,33.87.83,33.87.83-24.63,4.66-34.49,1.5S114.78,53.33,114.78,53.33Z"/><path class="cls-4" d="M415.48,52.26S391.13,50.08,382,53.35s-35.87.87-35.87.87,26.09,4.91,36.52,1.58S415.48,52.26,415.48,52.26Z"/><path class="cls-4" d="M302.72,34.88s-22.45-1.4-30.87.7-33.08.56-33.08.56,24,3.15,33.68,1S302.72,34.88,302.72,34.88Z"/><path class="cls-10" d="M375.4,105.76s29.62-6.14,40.73,3.07,43.65,2.46,43.65,2.46S428,125.1,415.34,115.74,375.4,105.76,375.4,105.76Z"/><path class="cls-4" d="M211.9,22.53s-16.67-1.61-22.92.81-24.56.64-24.56.64,17.86,3.64,25,1.17S211.9,22.53,211.9,22.53Z"/><path class="cls-11" d="M108.74,136.94s-24-13.69-35.51-3.11-37.86-4.48-37.86-4.48,24.11,24.55,37,14S108.74,136.94,108.74,136.94Z"/></g><g id="Lillypad"><path class="cls-12" d="M485.69,383.68c0,8.57-20.36,23.31-39.94,24.21-4-16.05-16-11.42-20.36-1.72-14.77-2.77-20.36,5.55-6.83,18.89-42.13,10.79-100.62,17.47-165.27,17.47-128.35,0-232.39-26.35-232.39-58.85s104-58.85,232.39-58.85S485.69,351.18,485.69,383.68Z"/><path class="cls-13" d="M488.08,380.75c0,8.58-20.36,23.31-39.93,24.21-4-16-16-11.42-20.36-1.71-14.78-2.78-20.37,5.54-6.83,18.88-39.79,10.19-94.18,16.72-154.57,17.41-3.55,0-7.12.07-10.7.07-3.95,0-7.86,0-11.76-.08C121.05,438,23.29,412.26,23.29,380.75c0-32.5,104.05-58.85,232.4-58.85S488.08,348.25,488.08,380.75Z"/><ellipse class="cls-13" cx="247.36" cy="376.62" rx="147.06" ry="51.79"/><path class="cls-14" d="M255.84,377.08S243.11,410.36,244.61,442c.3,6.41,22.41,5,22.45,0C267.37,410,255.84,377.08,255.84,377.08Z"/></g><g id="Shadow"><path class="cls-15" d="M435.45,351.67c4.57-1.88-4.52-.17-4.52-.17-5.39-2.65-74.62-1.62-74.62-1.62l55.31-13c40.79-16.83-47.7-3.77-65-1.12-.78-2-1.66-3.84-2.1-5.17a22.22,22.22,0,0,0-5.05-5.38c21.56,2,42,2.3,52.2-1.87,0,0,9.43-3.22,2.37-4.23.39-.08.63-.19.63-.34s-.2-.32-.55-.46c.4,0,.83-.08,1.26-.15,1.63-.23,2.73-.56,2.45-.72a6.81,6.81,0,0,0-2.27,0c.82-.31,1.18-.6.82-.7a8.05,8.05,0,0,0-2.95.42c-.31,0-.66,0-1,.07.82-.31,1.19-.59.82-.69a8.22,8.22,0,0,0-3.1.46,3.87,3.87,0,0,0-1.59.74,22.25,22.25,0,0,0-2.9.21h-.59l-.43.11v.12a2.66,2.66,0,0,0-.43.18h0a.37.37,0,0,0-.21.28c0,.16.14.27.39.35-3.12.31-6.43,1.05-4.73,2.89,0,0-7.63,4.6-44.69.36a48.69,48.69,0,0,0-6-2.71c25-1.4,43.36-4.09,45.51-8.92,2-4.51-4.28-5.2-21.11-7.41,17.31-10.82-24.86-14.47-45.75-6.91,0-2.05-20.3-2.66-24.66-2.66-6.45,0-22.32.44-27.9,2.65-14.9-7.35-58-5-52.58,7.88-18.59,2.23-26.44,2.1-28.33,6.32-2.34,5.25,16.56,8,43.63,9.34a284.94,284.94,0,0,0-29.07,10.3,52.72,52.72,0,0,0-10.3,6c-15.89-2.82-91-15.52-65.51,1.17l43.67,13s-68.29-1.06-76,1.59c0,0-7.56-1.72-4.67.16,0,0-5.3-1.88-3.33-.39l4.1,2.1s58.33-.7,73.8-.72c16.11,0,23.24-1.79,23.24-1.79l.18-.35.57.14.9,5.71-19.45,5.3c-7.91,1.05-.08,2.15-.08,2.15,7.95.34,5.48-1.49,5.48-1.49l.09,0L173,365.31l-.06.18c-1.9.33-1.73.94-1.73.94s-1.67,1.76,5,.94.07-1.92,0-1.94l18.38-3.66.11,0a7.94,7.94,0,0,0,3.47.55s4.77.12,5.12-1.16-5.42-.6-5.42-.6L181.69,357c-.56-.56-.43-3-.24-4.72,15.77,1.92,43.27,1.54,72.61,1.49,39-.06,65.42.11,81-2.59-1.25,1.63-4,5.07-5.27,5.76l-19.44,3.58s-5.18-.66-6,.61,4.08,1.16,4.08,1.16a10.9,10.9,0,0,0,4-.55l.45-.09,14.75,3.62,2-4.34-2,4.46s-7.72,1.1-1.74,1.93,5.89-.94,5.89-.94.71-.61-.89-.94l3.76-7,.12.05-3.73,6.74,14-2.6h0s-4.1,1.83,4.15,1.5c0,0,8.82-1.11,1.84-2.16l-14.72-5.3,5.45-5.18a124.24,124.24,0,0,0,18.18,1.1c15.44,0,73.14.76,73.14.76l6-2.1C442.42,349.79,435.45,351.67,435.45,351.67Zm-260.59,8.46.54-1.6h0Zm16.54.92-11.9-2.57-2.7,5.78,2.61-5.84Z"/></g><g id="Legs"><path class="cls-16" d="M388.24,275.44c-8,4.05-30.54,40-40,57.75-1.67,3.13-13.25,22.59-13.25,22.59s6.51,8.21,23,8.34c15.85.12,75.36,3.47,75.36,3.47l5.16-9.76c2.7-6.93-3.59,1.8-3.59,1.8,3.82-8.73-4.72-.77-4.72-.77-6.73-12.32-77.26-7.44-77.26-7.44l50.76-60.58c37.73-86.49-69.85-3.08-69.85-3.08l1.12,68"/><path class="cls-16" d="M113.07,277.65c8,4.05,30.55,40,40,57.75C154.72,338.53,166.3,358,166.3,358s-6.51,8.21-23,8.34c-15.85.12-75.35,3.46-75.35,3.46L62.76,360c-2.7-6.93,3.59,1.8,3.59,1.8-3.82-8.73,4.72-.77,4.72-.77,6.74-12.32,77.27-7.45,77.27-7.45L97.57,293.05c-37.73-86.5,69.86-3.08,69.86-3.08l-1.13,68"/></g><g id="Web"><polygon class="cls-17" points="313.71 405.92 330.63 422.86 330.78 390.17 313.71 405.92"/><polygon class="cls-17" points="175.43 423.88 192.65 406.77 175.58 391.54 175.43 423.88"/><polygon class="cls-17" points="171.38 391.54 172.13 423.37 158.81 411.05 171.38 391.54"/><polygon class="cls-17" points="334.92 391.03 334.17 422.86 347.5 410.54 334.92 391.03"/></g><g id="Chin"><path class="cls-18" d="M200.81,212.82s1.42,24.89,48.51,24.38c0,0,46.65,2.39,53.23-24.13Z"/></g><g id="Mouth"><path class="cls-19" d="M341.64,167.13c-4.43,4.48-21.12,21.84-41.33,24.9-15.68,2.37-33.05-9-51.21-9-15.16,0-34.34,12-48.41,9.76-24.5-3.87-55.59-33.88-35.37-23.62,6.72,3.42,18.53,13.54,36.72,14.76,12.87.87,30.28-11.68,47.51-11.68,16.25,0,35.72,12.17,52.33,10C327.79,178.91,347.37,161.33,341.64,167.13Z"/></g><g id="Fly"><ellipse class="cls-20" cx="374.49" cy="197.12" rx="5.4" ry="1.73" transform="translate(1.18 396.45) rotate(-55.86)"/><polygon class="cls-21" points="372.09 200.31 373.45 198.4 373.01 196.54 373.27 196.18 373.65 197.59 374.51 196.07 374.35 194.8 374.74 194.46 374.87 195.83 376.31 193.79 376.55 194 375.13 196.1 376.25 195.57 375.62 196.35 374.9 196.61 373.98 197.91 375.17 197.83 374.64 198.56 373.72 198.51 372.3 200.62 372.09 200.31"/><ellipse class="cls-20" cx="378.85" cy="198.39" rx="5.4" ry="1.73" transform="translate(2.03 400.62) rotate(-55.86)"/><polygon class="cls-21" points="376.45 201.59 377.81 199.68 377.37 197.82 377.63 197.45 378.01 198.87 378.87 197.35 378.71 196.07 379.1 195.73 379.23 197.1 380.67 195.07 380.91 195.28 379.49 197.38 380.61 196.85 379.98 197.63 379.26 197.88 378.34 199.19 379.53 199.11 379 199.84 378.08 199.79 376.66 201.89 376.45 201.59"/><path class="cls-19" d="M379.65,206.79c0,3.6-4.39,3.37-8.54,3.37-4-.6-6.26-.44-6.26-4s3.13-5.84,7.28-5.84S379.65,203.19,379.65,206.79Z"/><ellipse class="cls-20" cx="379.93" cy="201.17" rx="4.92" ry="1.9" transform="translate(-45.95 259.82) rotate(-35.74)"/><polygon class="cls-21" points="376.8 203.12 378.57 201.92 378.63 199.97 378.97 199.74 378.97 201.24 380.16 200.19 380.33 198.92 380.79 198.77 380.56 200.12 382.44 198.84 382.61 199.14 380.73 200.49 381.93 200.49 381.13 200.94 380.39 200.87 379.19 201.69 380.33 202.14 379.65 202.59 378.8 202.14 376.92 203.49 376.8 203.12"/><ellipse class="cls-20" cx="375.57" cy="199.89" rx="4.92" ry="1.9" transform="translate(-46.03 257.04) rotate(-35.74)"/><polygon class="cls-21" points="372.44 201.84 374.21 200.64 374.26 198.69 374.61 198.47 374.61 199.97 375.8 198.92 375.97 197.64 376.43 197.49 376.2 198.84 378.08 197.57 378.25 197.87 376.37 199.22 377.57 199.22 376.77 199.67 376.03 199.59 374.83 200.41 375.97 200.87 375.29 201.31 374.44 200.87 372.56 202.22 372.44 201.84"/><polygon class="cls-22" points="367.2 201.68 366.35 201.68 365.75 202.34 365.75 203.28 366.35 203.94 367.2 203.94 367.81 203.28 367.81 202.34 367.2 201.68"/><polygon class="cls-22" points="369.27 204.19 368.84 203.21 368 202.93 367.25 203.5 367.02 204.6 367.45 205.57 368.28 205.86 369.04 205.29 369.27 204.19"/><polygon class="cls-22" points="366.55 203.57 365.72 203.57 365.13 204.29 365.13 205.32 365.72 206.05 366.55 206.05 367.13 205.32 367.13 204.29 366.55 203.57"/></g><g id="Eyes"><ellipse class="cls-23" cx="202.21" cy="117.72" rx="23.75" ry="19.63"/><ellipse class="cls-23" cx="300.76" cy="117.14" rx="23.75" ry="19.63"/><ellipse class="cls-19" cx="205.86" cy="121.96" rx="9.1" ry="8.47"/><ellipse class="cls-19" cx="294.92" cy="120.48" rx="9.1" ry="8.47"/></g><g id="Right_eyelid" data-name="Right eyelid"><path class="cls-24" d="M280,106.68s32.18-2.82,43.52,17.46c0,0,8.33-19.77-15.59-26.1C307.91,98,291.55,93.25,280,106.68Z"/><path class="cls-24" d="M222.71,107.32s-31.78-2.82-43,17.45c0,0-8.23-19.76,15.39-26.09C195.12,98.68,211.28,93.89,222.71,107.32Z"/></g></svg>